<?xml version="1.0" encoding="iso-8859-1"?>
<!-- Uploaded to: SVG Repo, www.svgrepo.com, Generator: SVG Repo Mixer Tools -->
<!DOCTYPE svg PUBLIC "-//W3C//DTD SVG 1.1//EN" "http://www.w3.org/Graphics/SVG/1.1/DTD/svg11.dtd">
<svg fill="#fff" version="1.1" id="Capa_1" xmlns="http://www.w3.org/2000/svg" xmlns:xlink="http://www.w3.org/1999/xlink" 
	 width="800px" height="800px" viewBox="0 0 235.519 235.519"
	 xml:space="preserve">
<g>
	<g>
		<path d="M205.843,68.048V57.637c0-21.528-16.547-39.068-36.921-39.068h-42.745l12.353-12.373c1.435-1.435,1.435-3.732,0-5.137
			c-1.419-1.411-3.719-1.411-5.113,0l-15.665,15.671L102.08,1.058c-1.417-1.411-3.721-1.411-5.132,0
			c-1.415,1.411-1.415,3.711,0,5.137l12.389,12.373H66.324c-20.366,0-36.942,17.533-36.942,39.068v10.518
			C15.359,75.3,6.417,90.233,6.417,106.886c0,16.597,8.943,31.533,22.965,38.69v50.882c0,21.528,16.577,39.061,36.942,39.061h102.61
			c20.362,0,36.925-17.509,36.925-39.061v-50.782c14.182-7.113,23.243-22.068,23.243-38.806
			C229.085,90.127,220.017,75.169,205.843,68.048z M160.702,141.168c-21.644,0-39.244-17.545-39.333-39.143
			c0-0.084,0.016-0.13,0.016-0.185c0-0.046-0.016-0.106-0.016-0.16c0.096-21.62,17.689-39.191,39.333-39.191
			c21.696,0,39.346,17.649,39.346,39.367C200.04,123.535,182.375,141.168,160.702,141.168z M114.116,102.033
			c-0.094,21.59-17.693,39.143-39.347,39.143c-21.696,0-39.337-17.633-39.337-39.327c0-21.718,17.641-39.367,39.337-39.367
			c21.654,0,39.252,17.556,39.347,39.19c0,0.062-0.014,0.123-0.014,0.161C114.102,101.903,114.116,101.949,114.116,102.033z
			 M66.754,147.615c2.615,0.461,5.266,0.822,8.015,0.822c19.295,0,35.886-11.814,42.974-28.541
			c7.073,16.727,23.647,28.541,42.951,28.541c2.745,0,5.41-0.361,8.02-0.822v29.103c0,28.104-22.879,50.966-50.987,50.966
			c-28.112,0-50.964-22.862-50.964-50.966v-29.103H66.754z M200.789,140.042c-1.335,0.568-2.208,1.871-2.208,3.33v53.094
			c0,17.541-13.301,31.808-29.659,31.808h-24.694c18.768-9.658,31.751-29.022,31.751-51.548v-31.05
			c18.162-6.359,31.326-23.487,31.326-43.811c0-25.689-20.915-46.612-46.603-46.612c-19.304,0-35.878,11.792-42.959,28.565
			c-7.071-16.773-23.678-28.565-42.974-28.565c-25.686,0-46.593,20.915-46.593,46.612c0,20.316,13.152,37.435,31.318,43.811v31.05
			c0,22.525,12.974,41.89,31.73,51.548H66.284c-16.369,0-29.681-14.259-29.681-31.808v-53.187c0-1.435-0.848-2.753-2.174-3.33
			c-12.627-5.519-20.783-18.498-20.783-33.063c0-14.597,8.155-27.599,20.783-33.104c1.3-0.567,2.174-1.872,2.174-3.328V57.637
			c0-17.557,13.312-31.815,29.681-31.815h102.614c16.358,0,29.667,14.25,29.667,31.815v12.742c0,1.441,0.866,2.759,2.208,3.312
			c12.772,5.475,21.039,18.49,21.039,33.196C221.824,121.543,213.561,134.583,200.789,140.042z"/>
		<path d="M117.727,220.603c24.217,0,43.917-19.688,43.917-43.885v-7.146c0-2.008-1.623-3.631-3.635-3.631H77.464
			c-2.006,0-3.631,1.623-3.631,3.631v7.146C73.833,200.914,93.526,220.603,117.727,220.603z M81.091,173.191h73.3v3.526
			c0,20.209-16.45,36.632-36.664,36.632c-20.208,0-36.636-16.423-36.636-36.632V173.191L81.091,173.191z"/>
		<path d="M106.995,144.498c4.45,0,8.053,3.603,8.053,8.047c0,4.448-3.603,8.059-8.053,8.059c-4.446,0-8.053-3.61-8.053-8.059
			C98.942,148.101,102.549,144.498,106.995,144.498z"/>
		<path d="M128.483,144.498c4.443,0,8.055,3.603,8.055,8.047c0,4.448-3.611,8.059-8.055,8.059c-4.451,0-8.058-3.61-8.058-8.059
			C120.426,148.101,124.033,144.498,128.483,144.498z"/>
		<path d="M160.702,75.3c-2.432,0-4.732,0.431-6.969,1.028c3.19,2.759,5.307,6.684,5.307,11.193c0,8.219-6.689,14.903-14.884,14.903
			c-3.764,0-7.029-1.503-9.65-3.771c-0.14,1.088-0.309,2.116-0.309,3.188c0,14.627,11.87,26.495,26.514,26.495
			c14.671,0,26.524-11.868,26.524-26.495C187.212,87.184,175.354,75.3,160.702,75.3z"/>
		<path d="M74.072,75.3c-2.419,0-4.719,0.431-6.951,1.028c3.168,2.759,5.294,6.684,5.294,11.193c0,8.219-6.672,14.903-14.899,14.903
			c-3.721,0-7.033-1.503-9.64-3.771c-0.142,1.088-0.331,2.116-0.331,3.188c0,14.627,11.876,26.495,26.527,26.495
			c14.631,0,26.533-11.868,26.533-26.495C100.597,87.184,88.703,75.3,74.072,75.3z"/>
	</g>
</g>
</svg>