<svg width="688" height="193" viewBox="0 0 688 193" fill="none" xmlns="http://www.w3.org/2000/svg">
<rect width="207" height="193" rx="24" fill="black"/>
<path d="M59.9947 149L77.5018 43.5455H93.4126L85.1225 93.9041H86.4098L138.931 43.5455H158.961L108.654 91.0206L141.609 149H122.454L96.2962 101.885L81.4666 116.251L75.9055 149H59.9947Z" fill="white"/>
<path d="M246.995 149L264.502 43.5455H303.12C310.604 43.5455 316.594 44.7812 321.091 47.2528C325.622 49.6901 328.746 53.0027 330.462 57.1907C332.179 61.3443 332.591 66.0301 331.698 71.2479C330.977 75.6418 329.553 79.332 327.424 82.3185C325.33 85.305 322.79 87.708 319.804 89.5273C316.817 91.3467 313.676 92.6683 310.381 93.4922L310.175 94.522C313.607 94.6937 316.817 95.8265 319.804 97.9205C322.824 99.9801 325.124 102.915 326.703 106.725C328.283 110.536 328.643 115.17 327.785 120.628C326.858 126.018 324.764 130.858 321.503 135.149C318.276 139.405 313.831 142.787 308.167 145.293C302.502 147.764 295.585 149 287.415 149H246.995ZM265.171 135.355H288.136C295.757 135.355 301.455 133.879 305.232 130.926C309.042 127.974 311.342 124.284 312.131 119.856C312.646 116.526 312.286 113.471 311.05 110.69C309.849 107.91 307.823 105.696 304.974 104.048C302.159 102.4 298.623 101.576 294.367 101.576H270.835L265.171 135.355ZM272.946 89.1669H294.212C297.782 89.1669 301.112 88.4803 304.202 87.1072C307.326 85.7341 309.917 83.7946 311.977 81.2887C314.071 78.7828 315.375 75.8478 315.89 72.4837C316.645 68.0897 315.736 64.4338 313.161 61.516C310.621 58.5638 306.21 57.0877 299.928 57.0877H278.199L272.946 89.1669ZM374.513 150.596C366.755 150.596 360.336 148.931 355.256 145.602C350.209 142.237 346.674 137.517 344.648 131.441C342.623 125.331 342.297 118.174 343.67 109.969C345.009 101.868 347.703 94.728 351.754 88.549C355.805 82.37 360.851 77.547 366.893 74.0799C372.969 70.6128 379.68 68.8793 387.026 68.8793C391.488 68.8793 395.693 69.6173 399.641 71.0934C403.623 72.5695 407.004 74.8866 409.785 78.0447C412.566 81.2029 414.488 85.305 415.552 90.3512C416.651 95.363 416.616 101.456 415.449 108.631L414.574 114.089H351.651L353.453 102.555H401.237C401.958 98.504 401.769 94.9168 400.671 91.793C399.573 88.6348 397.684 86.1461 395.007 84.3267C392.364 82.5073 389.034 81.5977 385.018 81.5977C380.898 81.5977 377.054 82.679 373.483 84.8416C369.913 87.0043 366.927 89.7676 364.524 93.1317C362.155 96.4615 360.662 99.8943 360.044 103.43L358.242 113.986C357.349 119.753 357.504 124.387 358.705 127.888C359.941 131.39 362.104 133.93 365.193 135.509C368.283 137.088 372.145 137.878 376.779 137.878C379.765 137.878 382.529 137.466 385.069 136.642C387.644 135.784 389.926 134.531 391.917 132.883C393.908 131.201 395.573 129.107 396.912 126.601L411.021 129.227C409.133 133.518 406.421 137.277 402.885 140.504C399.349 143.696 395.179 146.185 390.373 147.97C385.601 149.721 380.315 150.596 374.513 150.596ZM427.253 149L444.761 43.5455H460.671L452.381 93.9041H453.669L506.19 43.5455H526.22L475.913 91.0206L508.867 149H489.713L463.555 101.885L448.725 116.251L443.164 149H427.253ZM527.263 149L540.445 69.9091H555.841L542.659 149H527.263ZM551.361 57.5511C548.683 57.5511 546.418 56.6586 544.564 54.8736C542.745 53.0542 541.904 50.8916 542.041 48.3857C542.178 45.8454 543.242 43.6828 545.233 41.8977C547.224 40.0784 549.541 39.1687 552.185 39.1687C554.862 39.1687 557.111 40.0784 558.93 41.8977C560.749 43.6828 561.608 45.8454 561.505 48.3857C561.367 50.8916 560.303 53.0542 558.312 54.8736C556.355 56.6586 554.038 57.5511 551.361 57.5511ZM563.423 149L576.604 69.9091H591.383L589.22 82.782H590.198C592.601 78.4223 595.862 75.0239 599.982 72.5866C604.135 70.1151 608.838 68.8793 614.09 68.8793C619.308 68.8793 623.513 70.1151 626.706 72.5866C629.932 75.0582 632.044 78.4567 633.039 82.782H633.863C636.403 78.5253 639.956 75.1441 644.522 72.6381C649.087 70.1322 654.219 68.8793 659.918 68.8793C667.024 68.8793 672.482 71.1449 676.292 75.6761C680.137 80.1731 681.304 86.9356 679.793 95.9638L670.937 149H655.489L664.14 97.4055C664.998 92.0161 664.174 88.1371 661.668 85.7685C659.162 83.3655 655.884 82.1641 651.834 82.1641C646.822 82.1641 642.668 83.7088 639.373 86.7983C636.077 89.8535 634.052 93.784 633.297 98.5898L624.801 149H609.508L618.313 96.4272C618.999 92.1019 618.21 88.652 615.944 86.0774C613.713 83.4685 610.452 82.1641 606.161 82.1641C603.243 82.1641 600.411 82.9364 597.665 84.4812C594.953 86.0259 592.636 88.1542 590.713 90.8661C588.791 93.578 587.538 96.7018 586.954 100.238L578.819 149H563.423Z" fill="black"/>
</svg>
